<?xml version="1.0" encoding="UTF-8"?>
<svg version="1.1" viewBox="0 0 2048 644" width="1280" height="1280" xmlns="http://www.w3.org/2000/svg">
<path transform="translate(0)" d="m0 0h2048v644h-2048z" fill="#422176"/>
<path transform="translate(1711,115)" d="m0 0h90l35 5 22 5 14 7 9 7 10 9 11 14 11 17 8 14 7 15 6 22v2l9 1 11 6 12 11 7 9 8 16 4 18 2 17 1 18-2-3-5-13-7-10-12-7-4-1h-15l-9 3-9 7-8 9-5 11-4 15-1 8v27l-41 11-9 1-4-16-5-12-7-9-8-7-15-8-11-3h-19l-12 4-13 9-8 8-7 10-5 12-5 21-2 7h-5l-7-7v-2l-10-2 2-14 4-13 7-13 8-10 10-8 11-7 6-3v-2l-19 11-8 6-8 9-8 14-4 12-3 18-1 1h-45l-45-4-49-7-32-6-29-7-27-9-20-11-13-10-13-2-8-16-2-5 1-3 7 8 10 6 5 2 11 1 11-4 10-7 8-10 5-12 1-4 1-15 12-7 10-7 13-8 16-6 12-3 9-2 4-2 3 2 55 1 34 2 21 3 32 6-1 2-34 1-26 5-17 5-16 8-10 10-7 14-3 15v13l3 12 7 13 8 9 14 9 7 3h29l13-5 8-7 7-10 6-12 3-12v-20l-5-13-9-13-9-8-12-6-11-3 3-2 18-3h43l21 1 9 2h8l3-5 6-22 4-22v-37l-3-12-6-9-5-4-8-4-19-5-14-3-21-3h-35l-16 4-13 7-7 6-12 18-12 23-10 25-7 20-1 1h-8l1-8 5-19 9-21 11-20 8-11 11-12 9-8 13-9 21-11 13-4 17-3z" fill="#9486E1"/>
<path transform="translate(1670,140)" d="m0 0h34l31 5 19 5 11 6 7 8 4 11v45l-2 11h-4l-6-5v2h2l7 8-5 20-3 6h-7l-31-7-6-2-2-1h-7l-28-5-25-3-13-1-52-1 3-12 7-19 5-10 4-10 5-9 6 1 19 10 11 7 8 5v2h3v2l5 2 12 9 13 10 14 13 7 4-11-10-11-9-15-12-19-13-19-12-7-4v-2l-8-2-6-3 2-5 7-11 11-12 7-5 16-6z" fill="#CFFBFE"/>
<path transform="translate(1126,207)" d="m0 0h26l15 5 9 6 10 9 6 9 6 16 1 10v19l-3 26-5 14-6 11-8 11-11 10-10 6-13 5-4 1h-23l-11-4-9-6-7-7-8-13-5-12-3-16v-30l4-23 7-16 6-9 10-10 11-7 10-4z" fill="#FCFCFD"/>
<path transform="translate(943,231)" d="m0 0h19l10 5 8 8v2l5-3 9-8 6-3 5-1h13l10 5 9 9 5 9 5 16 1 10v65l-1 3-1 16-1 3-1 12-4 8-6 4-13 1-7-3-4-5-1-3v-9l2-12 1-15 1-2 1-23v-31l-3-16-2-2-9 10-7 13-3 8-3 14-2 5-5 5-6 1h-11l-6-4-4-6v-44l-1-7-5 5-9 16-8 26-3 16-4 34-1 19-3 7-8 6h-14l-6-4-4-8v-11l2-13 1-21 3-16 2-15 6-23 6-15 7-14 12-15 11-7z" fill="#FCFCFD"/>
<path transform="translate(1790,332)" d="m0 0h16v2l6 1 10 4 9 5v2h2l6 7 3 3v2l2 1 3 4 2 11 3 4 2 8 1 11v14l-5 25-5 12-7 12-11 12-7 5-11 4-6 1h-10l-12-3v-2l-5-1-10-6-10-10-7-11-5-11-3-15-1-6-1-21-1 5h-1l1-10 1-5 2 2 4-15 1-3h2l2-5 7-11 8-8h2l1-4 5-4 12-5z" fill="#542472"/>
<path transform="translate(64,229)" d="m0 0h12l8 5 4 5v24l-2 9v37l1 3 3 24 4 10 2 2h8l3-5 1-17 2-2 2-5 3-3 6-2h10v2l5 1 5 5v3h2l1 3 1 16 2 5v4l4 2h8l2-4 5-9 5-15 4-20 2-21v-15l-1-14v-12l5-6 8-3 7 1 7 3 6 7 3 19v28l-1 4-2 21-6 26-3 8-5 11h-2l-1 5-11 12-9 6-9 3-6 1h-11l-10-4-12-8v-2l-10 5-9 3h-13l-11-4-8-6-8-9-5-10-3-11-1-1-3-17-2-18v-31l2-24 3-17 3-5z" fill="#FCFCFD"/>
<path transform="translate(332,206)" d="m0 0h12l8 5 3 4 1 3v13l-4 23-2 12-3 24-3 19-3 23-2 27-3 7-6 5-3 1h-14l-7-6-1-2v-19l1-12 2-12 1-8-32 1-2 12-2 25-3 17-3 9-5 5-8 2h-7l-7-3-4-5-1-2v-11l3-24 2-11 4-36 1-4 1-18 2-8 2-29 3-12 5-8 7-4h12l8 5 3 6v10l-2 3-3 29-1 4v11h30l2-7 4-28 3-18 4-12 5-5z" fill="#FCFDFD"/>
<path transform="translate(1323,227)" d="m0 0h8l10 5 6 9-1 14-6 36-2 15-3 13-2 13-3 13-6 30-4 8-5 4-7 2-9-1-7-6-9-20-3-7-5-13-5-10-4 14-3 16-4 16-3 16-4 6-7 3h-6l-9-4-6-7-1-2v-9l2-14 2-6 2-10 4-18 3-16 4-15 5-21 3-10 5-8 9-5h9l6 4 7 13 3 7 4 9 5 12 4 9h1l4-26 2-8 3-18 2-19 4-9 4-4z" fill="#FCFDFD"/>
<path transform="translate(1437,348)" d="m0 0 5 1 11 11 9 5 23 10 27 9 15 4 35 7 12 2 43 4 15 2 43 3h37l5 5 3 6 1 12-3 7-2 4-9 3-6 1-22 1h-37l-31-2-48-6-31-7-23-7-25-11-19-9-12-7-9-7-5-8-3-11v-20z" fill="#9603EB"/>
<path transform="translate(413,210)" d="m0 0h35l18 1 9 2 6 7 2 4v10l-4 8-5 3h-43l-1 11-1 2-2 13h12l15 4 6 5 2 4v9l-4 9-3 3-4 2h-22l-7-1-2 15-2 12 13-2h38l8 5 4 5 1 2v9l-3 8-6 5-39 1-13 1-3 1-27 1-6-4-5-6v-11l1-2 2-21 1-2 2-17 3-17 3-23 2-9 1-10 3-12 1-11 4-8 6-5z" fill="#FCFCFD"/>
<path transform="translate(539,210)" d="m0 0h34l22 1 8 4 3 3 2 4v15l-4 6-3 2h-45l-1 16-2 10h12l17 5 6 8v12l-1 2h-2l-1 4-3 3-9 2-25-1-1 14-2 13 13-2h38l6 3 6 7 1 2v12l-2 4h-2l-2 4-3 2-39 1-13 1-3 1-15 1h-12l-6-4-4-5v-14l2-18 4-24 3-22 8-49 3-14 5-6z" fill="#FCFDFD"/>
<path transform="translate(820,210)" d="m0 0h8l8 4 6 8 1 2v9l-6 8-12 6-7 6-3 5v6l6 7 5 3 7 3 11 7 7 7 9 14 3 8 1 6v17l-2 7-4 10-8 10-11 8-16 6-9 2h-13l-17-5-11-7-7-7-3-6v-9l5-7 9-5h8l9 5 4 4 3 1h14l10-5 3-4 1-9-2-6-7-8-6-4v-2l-5-1-9-5v-2l-4-1-8-7-6-11-2-6v-17l5-14 7-11 9-9 14-9z" fill="#FBFBFD"/>
<path transform="translate(1800,162)" d="m0 0 11 2 10 3 9 3 16 7 8 4v2l9 3 14 7v2l5 1 18 11 6 5 5 3 3 6 3 12v5l-10 4h-8l-19-12-21-13-4-2v-2l-5-1-28-14-11-4-8-3h-3l21 8 18 8 16 9 10 6 7 4 23 14 3 2v2l-5 2-23 5-66 10-2-7-4-20-2-13v-31l-1-5 1-13 3-9z" fill="#CE88FB"/>
<path transform="translate(1944,297)" d="m0 0h13l9 4 8 8 7 12 4 12 1 6v23l-2 10-4 11-6 12-11 12-8 6-6 2h-9l-3-1v-2l-5-2-6-5-7-10-6-14-3-11v-26l2-13 5-12 8-11 11-8z" fill="#542472"/>
<path transform="translate(657,228)" d="m0 0h8l7 3 5 5v25l-2 13-2 25-2 12-1 17-1 2 21-4 5-1 14-1 4-1h17l6 4 2 3 1 5v10l-5 8-5 3-18 3-18 2-20 4-14 4-5 1h-7l-9-3-4-5-2-5 1-15 1-3 2-31 2-12 3-32 1-16 3-12 7-6z" fill="#FCFCFD"/>
<path transform="translate(1640,280)" d="m0 0 12 1 12 5 9 7 9 14 3 9 1 16-2 15-5 9-7 7-12 6-8 2h-10l-10-5-9-7-6-7-7-12-3-11v-13l3-14 5-10 7-8 9-3z" fill="#7638EB"/>
<path transform="translate(1670,140)" d="m0 0h34l31 5 19 5 11 6 7 8 4 11v45l-2 11h-4l-4-4-5-3-5-6-11-9-10-9-20-15-14-10-8-4v-2h-3v-2l-5-1v-2l-5-2-21-10-9-5 4-3 9-3z" fill="#CE88FB"/>
<path transform="translate(1595,242)" d="m0 0h51l32 3 29 5 12 2 1-2 2 3 5 1-1 2-3 1-4 2 16 1 12 1v1h-62l-18 3 8 3 12 6 11 10 9 14 4 11v20l-3 12-7 14-9 11-8 6-11 4h-29l-14-7-10-8-7-8-7-15-2-9v-13l4-18 6-11 11-11 16-8 21-6 22-4 34-1-36-7-16-2-34-2-38-1v-1h39l25 1-13-1-50-1zm45 38-12 2-7 3-8 10-5 14-1 7v13l4 13 9 14 9 8 10 6 3 1h10l13-4 9-6 7-8 4-10 1-16-2-15-6-12-7-9-8-6-11-4z" fill="#421D74"/>
<path transform="translate(1618,182)" d="m0 0 6 1 19 10 11 7 8 5v2h3v2l5 2 12 9 13 10 14 13 6 4 5 2-1 3h-7l-28-5-25-3-13-1-52-1 3-12 7-19 5-10 4-10z" fill="#CE88FB"/>
<path transform="translate(1131,242)" d="m0 0h16l4 1v2l4 2 5 6 4 10v28l-5 16-5 9-9 10-9 4h-14l-8-7-5-10-2-9v-24l4-17 6-12 7-6z" fill="#432277"/>
<path transform="translate(1800,162)" d="m0 0 11 2 10 3 9 3 16 7 8 4v2l9 3 14 7v2l5 1 18 11 6 5 5 3 3 6 3 12v5l-10 4h-8l-19-12-21-13-4-2v-2l-5-1-28-14-11-4-15-5-1-4 1-13 3-9z" fill="#CEFAFD"/>
<path transform="translate(1445,339)" d="m0 0 6 2 8 7 18 10 14 6 22 7 41 9 21 4 50 7 47 4 46 1-2 5-3 2-9 1h-28l-61-5-45-5-30-5-27-7-27-9-21-9-11-7-9-8-4-8z" fill="#9282E1"/>
<path transform="translate(1823,148)" d="m0 0h25l15 2 12 6 8 8 2 5h2l11 17 11 21 1 5-10-6-18-11-15-8-30-15-8-3h-7l1-2-15-4-6-3 2-4 3-3z" fill="#CC87FA"/>
<path transform="translate(1658,270)" d="m0 0h9l9 2 11 7 8 7 9 15 4 11v11l-2 12-5 13-9 12-9 8-7 3-3-1h2v-6l6-7 4-8 2-8v-26l-5-13-9-12-8-6-6-3-16-3 2-5z" fill="#9603EB"/>
<path transform="translate(1490,234)" d="m0 0h44l21 3 13 3-3 3-22 6-16 8-16 10-9 6-4 2-3-5-7-14-5-6-11-7-9-3v-1l18-4z" fill="#9385E1"/>
<path transform="translate(1832,144)" d="m0 0 18 1 17 3 8 4 10 9 10 14 9 15 8 16 5 13 4 17 5 9 4 7 3 13h-2l-6-16-6-8-26 8-29 6-50 8h-4l1 3 5 5 4 5 4 8 5 15v2l-3-1-8-20-6-8-8-7-3-2-4-18-4-28-1-20v-17l3-16 6-10 7-5 9-3zm-9 4-16 5-5 5 1 3 20 6-16-4-7-1-3 6-1 4-1 16 1 3v30l4 24 3 15 2 1 65-10 26-6 2-1v-2l-28-17-8-5-22-12-10-5-24-10-6-2 9 2 9 4 7 3 16 7 11 6h3v2l16 9 17 11 11 7h8l10-4-1-9-4-13-3-3-5-3-15-10-9-5h-3v-2l-21-10h-2v-2l-16-8-8-3h-5v-2l15 5 19 10 27 14 17 11 7 4-3-9-10-19-10-15h-2l-2-5-9-9-11-5-15-2z" fill="#371559"/>
<path transform="translate(1668,137)" d="m0 0h35l27 4 24 6 9 4 6 4 5 6 4 8 2 9v37l-5 26-6 21-3 3h-8l-11-3-12-1-25-1v-1l12-2v-2h11l25 6h7l5-16 2-9-6-6v-2h-2v-2l4 2 3 3h2l2-11v-45l-4-11-6-7-14-7-20-5-27-4h-34l-10 2-15 6-10 9-10 13-4 7v2l13 5v2l5 2 20 12 11 8 14 10 11 9 14 12 8 7h-3l-8-6-13-12-11-8-15-11-2-1v-2h-3v-2l-5-2-21-13-15-7-3-1-2 5-5 10-3 7-5 12-5 14-3 12 50 1 20 2v1l-32-1h-56l-5-2-1 1h-5l3-4-10-1-8-2v-2l13 1 4 2 11 1 2-1v4l9 1 3-10 7-20 9-21 11-21 12-17 10-8 13-6z" fill="#341353"/>
<path transform="translate(1440,254)" d="m0 0h11l9 5 7 8 4 7 2 12-1 14-4 13-5 5-5 4-4 2h-7l-10-7-7-9-5-10-1-4v-15h1l1 11 4 9 10 4 12-2 5-4 4-10-1-8-5-8-6-5-4-1h-7l-9 2 1-7 7-5z" fill="#7638EB"/>
<path transform="translate(1722,397)" d="m0 0 3 3 5 10v16l-1 2 2-1 2-8v-14l3 1 6 31 8 16 7 11 5 5v2l4 2 13 7v3h-10l-14-4-12-6-10-9-10-13-3-6 1-5 4-5-1-1v-14l-4-10-3-6 4-5z" fill="#580D9B"/>
<path transform="translate(1462,243)" d="m0 0 11 4 6 4 9 10 6 14 1 5v10l-6 16-7 9-8 6-4 2-4-1-1-2 6-9 3-12v-23l-4-10-9-10-12-6v-3l5-1v-2z" fill="#9603EB"/>
<path transform="translate(1762,320)" d="m0 0 2 1-5 5-11 6-12 9-8 10-8 15-4 15-1 9 9 3 7 8h7v-5l2-1-1 11-8-2v2l-4-1-4-7-3 4h-3l1-6h-46l-47-4-50-7-45-9-24-6-23-8-21-11-9-7-3-3-9-1v3l-4-1-2-9 3 1v2h8l6 2 14 10 12 7 14 6 26 8 42 9 45 7 36 4 25 2h45l3-18 5-14 8-13 9-10 10-7z" fill="#391659"/>
<path transform="translate(1801,389)" d="m0 0h10l7 6 4 8 1 3v8l-3 9-6 9-5 3h-8l-6-4-5-8-2-6v-10l3-9 6-7z" fill="#9603EB"/>
<path transform="translate(1637,300)" d="m0 0h8l5 2 7 8 2 5v9l-4 11-5 5-3 1h-12l-6-4-4-6-3-9 1-9 4-6 7-6z" fill="#9485E1"/>
<path transform="translate(1788,330)" d="m0 0h19l13 4 13 7 10 9 6 8 5 12 3 16 9-2h7l-3 2-12 3v19l-3 19-4 14-8 16-7 10-9 9-12 6-20 4h-22l-3-2h13l-4-6 14 3h10l12-3 8-4 11-10 9-14 5-11 5-21 1-7v-14l-1-11-3-9-2-3-2-11-1-3-2-1-2-5-4-2-4-4v-2h-2v-2l-4-1-9-5-12-4v-2l-16 1-13 4-8 5-2 4-8 7-7 10-4 7h-2l-2 11-3 10h-1v-10l5-15 6-10 11-12 11-8 8-4z" fill="#411F71"/>
<path transform="translate(1551,284)" d="m0 0 7 1 6 4 7 8 2 4v6l-9 11-7 4-5 1-9-6-7-8-1-9 6-9 8-6z" fill="#F8FFFE"/>
<path transform="translate(1943,293)" d="m0 0h15l10 4 8 6 6 9 5 13 2 8v30l-4 15-5 13-7 10-4 5h-2v2l-9 6-7 3-7 1h-9l-8-1v-1h8v-3l5 1h9l8-3 10-9 7-9 7-14 3-10 1-7v-23l-3-12-5-12-7-9-7-6-6-2h-13l-10 4-10 8-6 9-5 12-2 13v32l-3-2-2-9v-18l3-17 5-13 6-9 8-8 10-6z" fill="#24093D"/>
<path transform="translate(1948,333)" d="m0 0h8l5 5 4 8 1 9-5 13-5 4h-8l-6-4-3-5-1-5v-10l3-8 5-6z" fill="#9603EB"/>
<path transform="translate(1440,266)" d="m0 0 7 1 6 4 4 5 2 5v7l-3 7-5 5-2 1h-11l-6-3-3-6v-12l3-8 6-5z" fill="#9384E1"/>
<path transform="translate(1650,268)" d="m0 0h16l13 4 10 6 7 6 7 10 2 6 3 1 2 5-1 21-3 12-2 2 2-10 1-8v-11l-5-13-9-14-10-8-10-5-6-1h-9l-13 2-2 5h7l12 3 10 7 7 8 6 10 3 9v26l-4 13-7 9-2 7 6-1-4 3-9 1-6-1v-2l-2-2 12-6 7-7 4-8 2-15-1-16-4-11-9-13-8-6-11-4-12-1-12 2-5 1 1-2 11-3-3-1 1-4 12-5z" fill="#570D99"/>
<path transform="translate(1595,242)" d="m0 0h51l32 3 29 5 12 2 1-2 2 3 5 1-1 2-3 1-4 2 16 1 12 1v1h-62l-18 3 8 3 12 6 11 10 9 14v2h-2l-7-12-6-7-11-7-11-4-4-1h-16l-13 4-4 1 1-3 16-6 22-5 12-2 34-1-36-7-16-2-34-2-38-1v-1h39l25 1-13-1-50-1z" fill="#462175"/>
<path transform="translate(1476,371)" d="m0 0 15 3 29 9 25 6 32 5 48 5 51 4 33 1 6 2-1 2-2-1h-37l-43-3-15-2-43-4-38-7-17-4-29-9-14-6z" fill="#491C7F"/>
<path transform="translate(1825,168)" d="m0 0 7 1 12 5 20 11 16 8 14 8 15 10 2-4 4 9v3h2l4 17 5 9 4 7 3 13h-2l-6-16-6-8-26 8h-8l2-1v-2l11-2v-2l-5-2-23-14-8-5-22-12-10-5-24-10-8-3v-1h5l12 5 8 3 18 8 14 7v2l6 2 38 24h8l10-3-5-20-3-4-5-3-15-10-12-6v-2l-6-2-17-8v-2l-6-2-10-5-13-4z" fill="#321251"/>
<path transform="translate(1801,384)" d="m0 0h10l6 3 6 7 4 11v11l-4 9-4 6h-2l-2 4-5 3-9 1-9-5-6-10-2-9v-12l5-10 7-7zm0 5-6 4-6 9-1 5v10l4 10 5 6 4 2h8l5-3 7-10 2-8v-8l-4-9-6-7-2-1z" fill="#431B77"/>
<path transform="translate(1832,144)" d="m0 0 18 1 17 3 8 4 10 9 10 14 9 15 8 16 4 9-1 4-4-10-2 1-9-19-12-19-1-3h-2l-6-8-7-6-9-4-15-2h-25l-16 5-4 4v2l20 6 1 2-11-2-10-3h-3l-2 5-2-1 1-7 6-8 10-5z" fill="#3D1963"/>
<path transform="translate(1449,242)" d="m0 0h17l14 7 7 7 8 16 2 6v17l-2 1-3 6-1-3 3-9v-10l-3-10-5-10-9-10-11-5-4-1h-8v2l-4 2 3 3 9 5 7 7 5 10 1 3v23l-3 12-4 6-2 1-2-2h2l2-6 3-10 1-14-2-12-7-11-9-7-3-1h-11l-6 3-2-1 4-3 4-2h-4l2-4 6-2v-2z" fill="#570D99"/>
<path transform="translate(1904,375)" d="m0 0 5 1 9 21 6 9 8 7-1 2-8-1-10-5-9-8-6-9-2-12 3-3z" fill="#580D9B"/>
<path transform="translate(1866,384)" d="m0 0h7l-3 2-12 3v19l-3 19-4 14-8 16-7 10-9 9-12 6-20 4h-22l-3-2h13l-4-6 14 3h10l12-3 8-4 11-10 9-14 5-11 5-21 1-7 1-26z" fill="#1F0637"/>
<path transform="translate(1950,327)" d="m0 0 7 1 6 4 5 7v20l-3 10-6 5-8 2-9-3-5-5-3-8v-12l3-10 6-8 1-1h6zm-2 6-5 4-4 7-1 4v10l2 7 4 5 4 2h8l5-4 5-13-1-9-5-10-4-3z" fill="#441A78"/>
<path transform="translate(1777,177)" d="m0 0 3 1v37l-5 26-6 21-3 3h-8l-11-3-12-1-25-1v-1l12-2v-2h11l25 6h7l5-16 2-9-6-6v-2h-2v-2l4 2 3 3h2l3-14z" fill="#3B185C"/>
<path transform="translate(1736,437)" d="m0 0 2 1 4 11v8l5 5 3 5 5 4v3h2l-1 2-9-5-7-2-9-10-3-6-2-2v-6l4-6z" fill="#9503EA"/>
<path transform="translate(1554,291)" d="m0 0h5l6 9 1 7-6 5-5 2-7-1-4-5-2-9 5-5z" fill="#9588E1"/>
<path transform="translate(1668,137)" d="m0 0h35l27 4 24 6 9 4 6 4 5 6 4 8 1 8h-2v40h-1l-1-42-4-11-6-7-14-7-20-5-27-4-30-1v-1l-6-1z" fill="#3A1861"/>
<path transform="translate(1507,422)" d="m0 0 11 3 10 3-4 1-5-1 8 11 7 7v3l-9-1-11-6-8-8-5-8v-2l6-1z" fill="#5A0C9D"/>
<path transform="translate(1944,297)" d="m0 0h13l9 4 8 8 7 12 4 12 1 6v23h-1l-1-17-2-5v-8l-8-16-8-10-5-3-12-1-14 5-4 3-5 2-8 10-1-3 8-11 11-8z" fill="#422176"/>
<path transform="translate(1709,309)" d="m0 0h2v20l-3 12-7 14-9 11-8 6-11 4h-29v-1l12-1v-2l-10 1-7-2 3-1h10l11-1-1 3h9l10-2v-2l8-6 6-7 7-11 1-3h2l3-14z" fill="#441F74"/>
<path transform="translate(1595,242)" d="m0 0h51l32 3 29 5 12 2 1-2 2 3 5 1-1 2-17-1-33-6-24-2-20-1-38-1v-1h39l25 1-13-1-50-1z" fill="#411C69"/>
<path transform="translate(1634,297)" d="m0 0h12l9 6 6 9 1 3v8l-4 12-4 5-7 3h-14l-6-4-5-9-2-8v-7l4-9 5-6zm3 3-6 3-7 8-2 5 1 10 5 10 5 4 2 1h12l6-3 5-10 1-4v-9l-4-8-6-6-4-1z" fill="#4C1880"/>
<path transform="translate(1461,239)" d="m0 0 11 3 11 7 7 9 8 16 5-3 11-7 18-11 14-6 21-6 2-1-1 3 2 2-18 4-14 5-10 5-17 11-11 7h-2v15h-1l-1-14-6-15-6-9-6-5-12-6-13-1 4-2z" fill="#462175"/>
<path transform="translate(1762,320)" d="m0 0 2 1-5 5-11 6-12 9-8 10-8 15-4 15-1 9 2 2-5 1h-44v-1l43-1 3-18 5-14 8-13 9-10 10-7z" fill="#3B185E"/>
<path transform="translate(1898,254)" d="m0 0 11 2 7 3 2 4-2 4h-10l-7 3-5-1-4-4v-6l4-4z" fill="#432076"/>
<path transform="translate(1788,330)" d="m0 0h19l13 4 2 1v2l-16-4h-16l-13 4-8 5-2 4-8 7-7 10-4 7h-2l-2 11-3 10h-1v-10l5-15 6-10 11-12 11-8 8-4z" fill="#3F1D6C"/>
<path transform="translate(1659,392)" d="m0 0h63l9 9h7v-5l2-1-1 11-8-2v2l-4-1-4-7-3 4h-3l1-6h-46l-12-1z" fill="#2C0F4A"/>
<path transform="translate(1495,294)" d="m0 0 2 2-5 12-9 11-10 7-11 4-11-1 1-2-5-2v-1l9-2 6-4 4-1 1 5 5-1 9-6 7-9 2-4 3-3z" fill="#491D7D"/>
<path transform="translate(1993,310)" d="m0 0 5 3 3 9-1 12-4 10-4 2-2-5 1-28z" fill="#9603EB"/>
<path transform="translate(1476,371)" d="m0 0 15 3 29 9 25 6 17 3 6 2v2l-12-1-34-7-32-10-14-6z" fill="#4B1981"/>
<path transform="translate(1655,148)" d="m0 0 7 2 16 8 17 10 15 10 18 13 12 10 11 9 10 10 3 4-1 2-7-8-11-9-10-9-20-15-14-10-8-4v-2h-3v-2l-5-1v-2l-5-2-21-10z" fill="#5A2A8E"/>
<path transform="translate(1607,329)" d="m0 0h1l4 13 9 14 8 7 10 6v2l10 1h7v2l-2 1h-13l-11-6-10-8-7-8-7-15-1-7z" fill="#451F75"/>
<path transform="translate(1435,333)" d="m0 0 3 1v2h8l6 2 14 10 12 7 14 6-1 3-5-1-17-8-14-9-5-5-9-1v3l-4-1z" fill="#341352"/>
<path transform="translate(1882,247)" d="m0 0h5l1 3-24 5-44 7h-5v-2l-3-1 58-9z" fill="#3A175E"/>
<path transform="translate(1551,235)" d="m0 0 13 1 4 2 11 1 2-1v4h9l3-1 2 1 50 1 20 2v1l-32-1h-56l-5-2-1 1h-5l3-4-10-1-8-2z" fill="#1F0636"/>
<path transform="translate(1795,164)" d="m0 0 2 3-1 21 1 3v30l1 6v12l-2-4-2-10-1-8-1-20v-17z" fill="#361454"/>
<path transform="translate(1722,397)" d="m0 0 3 3 5 10v16l-4 8h-2v-14l-4-10-3-6 4-5z" fill="#9282E1"/>
<path transform="translate(1623,182)" d="m0 0 9 2 2 1v2l5 2 20 12 11 8 14 10 11 9 14 12 8 7h-3l-8-6-13-12-11-8-15-11-2-1v-2h-3v-2l-5-2-21-13-13-7z" fill="#512583"/>
<path transform="translate(1798,190)" d="m0 0h5l12 5 8 3 18 8 14 7v2l6 2 38 24 6 1v1l-7 1v-2l-5-2-23-14-8-5-22-12-10-5-24-10-8-3z" fill="#582C8B"/>
<path transform="translate(1599,385)" d="m0 0 14 1 28 3 25 2v1h-7v2l-23-1-26-3-14-2z" fill="#2D0F49"/>
<path transform="translate(1928,278)" d="m0 0h2l-1 3-9 6-9 9-6 10-7 16-3 13-1 13-2 1v-12l3-16 7-17 7-11 9-9z" fill="#411C65"/>
<path transform="translate(1788,417)" d="m0 0 2 3 5 10 6 4h8l5-3 6-9 2 1 2-2-1 4-4 6h-2l-2 4-5 3-9 1-9-5-6-10-1-6 2 1z" fill="#451D7C"/>
<path transform="translate(1422,281)" d="m0 0h1l1 17h2l5 10 7 9 9 6v2l7 2v1h-6l-9-5-8-7-4-7-2 3-3-13-1-6v-11z" fill="#452077"/>
<path transform="translate(1825,168)" d="m0 0 7 1 12 5 20 11 16 8 14 8 15 10 2-1 1 6-8-5-15-10-12-6v-2l-6-2-17-8v-2l-6-2-10-5-13-4z" fill="#552B8A"/>
<path transform="translate(1709,309)" d="m0 0h2v20l-3 12-7 14-4 3-7 6-6 5-3-1 8-6 6-7 7-11 1-3h2l3-14z" fill="#532079"/>
<path transform="translate(1438,264)" d="m0 0h7l7 3 7 8 3 8-1 8-5 8-4 3-12 2-6-2 4-2h11l5-3 3-5 1-4v-7l-4-8-5-4-11-4z" fill="#491C7F"/>
<path transform="translate(1491,362)" d="m0 0 7 1 24 7 18 4-2 1v2l-12-2-23-6-12-4z" fill="#361556"/>
<path transform="translate(1463,242)" d="m0 0 5 1 12 6 7 7 8 16 2 6v17l-2 1-3 6-1-3 3-9v-10l-3-10-5-10-9-10-11-5-3-1z" fill="#580D9B"/>
<path transform="translate(1568,240)" d="m0 0v3l2 2-18 4-14 5-10 5-8 5h-3v-2l15-9 14-6 21-6z" fill="#381658"/>
<path transform="translate(1950,327)" d="m0 0 7 1 6 4 5 7v20l-4 9-2 1 4-12v-11l-3-9-5-2-2-1v-2h-12l2-3h4z" fill="#321358"/>
<path transform="translate(1434,265)" d="m0 0h7l-3 3-5 4-3 8v12l3 6 3 3-6-1-4-7v-16l4-9h2v-2z" fill="#451F78"/>
<path transform="translate(1609,197)" d="m0 0 1 4-6 12-6 17-3 10-2 2-3-1 10-28 5-12 4-1z" fill="#3A185F"/>
<path transform="translate(1813,147)" d="m0 0 3 1-1 1h5l-4 2-10 4-3 3v2l20 6 1 2-11-2-10-3h-3l-2 5-2-1 1-7 6-8z" fill="#3F1963"/>
<path transform="translate(1763,153)" d="m0 0 5 1 6 7 4 8 1 8h-2v40h-1l-1-42-4-11-8-10z" fill="#3D185C"/>
<path transform="translate(1722,255)" d="m0 0h11l21 5-2 2-23-1-19-1v-1l12-2z" fill="#23093D"/>
<path transform="translate(953,273)" d="m0 0h1v36l-1 8h-1l-1-8-2-1-1-9 3-12z" fill="#572978"/>
<path transform="translate(1892,176)" d="m0 0 3 3 2-1 12 21 7 16-1 4-4-10-2 1-9-19-8-13z" fill="#441F6E"/>
<path transform="translate(1838,332)" d="m0 0 4 2 11 14 7 15 1 6-3-1-8-17-12-16z" fill="#462173"/>
<path transform="translate(1762,320)" d="m0 0 2 1-5 5-11 6-12 9-8 10-1-2 4-8 7-7 17-10z" fill="#3C1960"/>
<path transform="translate(1634,297)" d="m0 0h12l9 6 6 9 1 3v8l-2 4-1-2-2-13-4-6-4-4-15-2z" fill="#481C7E"/>
<path transform="translate(1714,255)" d="m0 0h8v3l-3 1 16 1 12 1v1h-19l-42-1-2-3 34-1z" fill="#4B2373"/>
<path transform="translate(1788,330)" d="m0 0h19l13 4 2 1v2l-16-4h-16l-13 4-11 6 2-4 11-6z" fill="#270B43"/>
<path transform="translate(1663,138)" d="m0 0h33v1l-22 1-14 3-16 6v-4l11-5z" fill="#2C0E48"/>
<path transform="translate(1777,177)" d="m0 0 3 1v37l-1 2h-2z" fill="#2C0F49"/>
<path transform="translate(1944,329)" d="m0 0 2 1-1 1 11 1v1l-10 2-6 9-2 14-2-1v-8l-2-1 3-10 6-8z" fill="#481A80"/>
<path transform="translate(1832,144)" d="m0 0 18 1 8 1 4 3-13-1h-24l-10 2-2-1 4-3z" fill="#2F104A"/>
<path transform="translate(1551,235)" d="m0 0 13 1 4 2 11 1 2-1v4l4 2v1h-8l-5-2-1 1h-5l3-4-10-1-8-2z" fill="#260B41"/>
<path transform="translate(1694,404)" d="m0 0h15l6 2-1 2-2-1h-37l-15-1v-1z" fill="#580D9B"/>
<path transform="translate(1773,242)" d="m0 0 1 3-5 17-3 3h-8l-9-2 3-2h13l5-16z" fill="#341453"/>
<path transform="translate(1811,267)" d="m0 0 4 2 7 10 7 20v2l-3-1-8-20-6-8z" fill="#361455"/>
<path transform="translate(1678,259)" d="m0 0h24v1l-16 1-1 1-27 4-7 1 3-3z" fill="#321250"/>
<path transform="translate(1853,214)" d="m0 0 6 2 18 11 22 14 6 1v1l-7 1v-2l-5-2-23-14-8-5-9-5z" fill="#4F247E"/>
<path transform="translate(1838,255)" d="m0 0h6l2 3-26 4h-5v-2l-3-1z" fill="#421B6D"/>
<path transform="translate(1803,114)" d="m0 0 15 1 24 4 9 2v1h-10l-31-5-7-2z" fill="#2F104C"/>
<path transform="translate(1495,294)" d="m0 0 2 2-5 12-9 11-4 1 2-5 7-9 2-4 3-3z" fill="#4E1D7D"/>
<path transform="translate(1632,298)" d="m0 0 3 1 2 2-6 3-6 7-2 5v10h-2l-1-4v-7l4-9 5-6z" fill="#4D2176"/>
<path transform="translate(1422,281)" d="m0 0h1l1 17h2l3 10 4 6-4-1-2-4-2 3-3-13-1-6v-11z" fill="#22083B"/>
<path transform="translate(1599,385)" d="m0 0 14 1 16 2v1h-5v2l-14-1-14-2z" fill="#371659"/>
<path transform="translate(1628,365)" d="m0 0 7 2 4 2v2l10 1h7v2l-2 1h-13l-11-6z" fill="#351458"/>
<path transform="translate(1723,393)" d="m0 0 8 8h7v-5l2-1-1 11-8-2v2l-4-1-4-7-2 1v-4h2z" fill="#2F104C"/>
<path transform="translate(1515,263)" d="m0 0 4 2-11 7-8 5h-2v15h-1l-1-14-1-4 6-1 5-4z" fill="#432070"/>
<path transform="translate(1655,148)" d="m0 0 7 2 16 8 17 10v3h-2v-2h-3v-2l-5-1v-2l-5-2-21-10z" fill="#5C2B8C"/>
<path transform="translate(1713,378)" d="m0 0 2 3v9l2 2-5 1h-44v-1l43-1z" fill="#422176"/>
<path transform="translate(1990,309)" d="m0 0h5l1 2h-3l-1 2-1 21-1 7h-1l-2-13 2-18z" fill="#560E98"/>
<path transform="translate(1538,375)" d="m0 0h7l20 4v2h-11l-15-3z" fill="#341455"/>
<path transform="translate(1526,431)" d="m0 0h7l10 3v2l2 1h-6l-4-1v-2h-5v2l2 1-1 1 4 2 1 3-5-2-5-5z" fill="#542472"/>
<path transform="translate(1928,278)" d="m0 0h2l-1 3-9 6-9 9-2 3h-2l1-4 7-8 7-6z" fill="#45206E"/>
<path transform="translate(1564,393)" d="m0 0 13 1 13 2 4 2h-20l-6-2v-2z" fill="#461C75"/>
<path transform="translate(1910,207)" d="m0 0 2 2 3 7v3h2l2 9v8l-3-3-6-23z" fill="#2C0E49"/>
<path transform="translate(1665,245)" d="m0 0h13l12 2-3 1v2l-11-1-10-1z" fill="#361457"/>
<path transform="translate(1801,260)" d="m0 0h14l-1 3h-4l3 7-4-1-5-4-3-2z" fill="#311151"/>
<path transform="translate(1642,146)" d="m0 0 3 1-1 3-8 7-5 5-2-4 5-6z" fill="#321251"/>
<path transform="translate(1920,236)" d="m0 0 3 4 7 12 3 13h-2l-6-16-7-9 2-1z" fill="#3E1A62"/>
<path transform="translate(1623,182)" d="m0 0 9 2 2 1v2l5 2 15 9v3l-20-12-11-6z" fill="#5D2D8F"/>
<path transform="translate(1476,371)" d="m0 0 15 3 9 3v3l6 1-4 1-22-8z" fill="#4E1788"/>
<path transform="translate(1457,292)" d="m0 0 3 1-4 6-4 3-12 2-6-2 4-2h11l5-3z" fill="#4B1A82"/>
<path transform="translate(1857,252)" d="m0 0h8l-1 3-12 2h-10l3-3z" fill="#3A165F"/>
<path transform="translate(1747,365)" d="m0 0 1 2-3 8-4 16h-1v-10l5-15z" fill="#2D0F48"/>
<path transform="translate(1709,309)" d="m0 0h2v20l-2 9h-2l1-11z" fill="#432175"/>
<path transform="translate(1982,275)" d="m0 0 2 3 4 18v11h-1l-3-14-2-11z" fill="#2A0D47"/>
<path transform="translate(1851,349)" d="m0 0 3 1 6 13 1 6-3-1-7-15z" fill="#371557"/>
<path transform="translate(1622,326)" d="m0 0h2l5 10 6 4 11 1v1h-15l-5-5-4-7z" fill="#491D7D"/>
<path transform="translate(1695,169)" d="m0 0 8 4 18 13v2l-5-2-8-6-13-9z" fill="#5B298D"/>
<path transform="translate(1654,402)" d="m0 0 22 1 18 1v1h-35v-2h-5z" fill="#482274"/>
<path transform="translate(1428,262)" d="m0 0 2 3-1 2 3 1-1 2h-2l-2 7-1 13h-1l-1-15z" fill="#552276"/>
<path transform="translate(1471,235)" d="m0 0h5l-1 2-26 6-5 2-4-1 7-3z" fill="#1F0636"/>
<path transform="translate(1491,362)" d="m0 0 7 1 13 4-1 2h-7l-12-4z" fill="#361454"/>
<path transform="translate(1435,333)" d="m0 0 3 1v2h8l3 3-8 1v3l-4-1z" fill="#2C0E47"/>
<path transform="translate(1590,396)" d="m0 0 16 1-2 1v2h9v1h-10l-18-2v-1l5-1z" fill="#501787"/>
<path transform="translate(1643,390)" d="m0 0h10l13 1v1h-7v2l-23-1v-1l7-1z" fill="#431C65"/>
<path transform="translate(1629,159)" d="m0 0 2 1-1 4-7 11h-3l-1-2 9-13z" fill="#30114E"/>
<path transform="translate(1607,309)" d="m0 0h1l-1 21-2 1-1-2v-13l1-6z" fill="#3F1965"/>
<path transform="translate(1634,297)" d="m0 0h12l9 6-2 1-8-3-11-1z" fill="#491B80"/>
<path transform="translate(1692,227)" d="m0 0 4 2 11 9 10 9h-3l-8-6-14-13z" fill="#4B2276"/>
<path transform="translate(1582,383)" d="m0 0h10l7 2 4 2h-13l-7-1z" fill="#301150"/>
<path transform="translate(1790,332)" d="m0 0h16v1l-15 1-13 4-9 6-2-1 6-5 12-5z" fill="#422176"/>
<path transform="translate(1500,378)" d="m0 0 10 2 10 3v2h-8l-6-2v-2l-6-1z" fill="#481C7D"/>
<path transform="translate(1907,197)" d="m0 0 3 4 6 14-1 4-4-10-2 1-4-9v-2h2z" fill="#441F6E"/>
<path transform="translate(1696,357)" d="m0 0 2 2-9 10-5 2-3-2 7-4z" fill="#532472"/>
<path transform="translate(1699,351)" d="m0 0 2 4-4 3-7 6-6 5-3-1 8-6 6-7z" fill="#56168A"/>
<path transform="translate(1738,334)" d="m0 0 2 1v3l-7 6-5 7-1-2 4-8z" fill="#431E6B"/>
<path transform="translate(1714,255)" d="m0 0h8v3l-3 1h-35v-1l34-1z" fill="#512472"/>
<path transform="translate(1604,398)" d="m0 0h11l10 1-1 3h-7l-13-2z" fill="#491F7A"/>
<path transform="translate(1520,384)" d="m0 0 7 1 9 2v2h-9l-11-3z" fill="#4B1983"/>
<path transform="translate(1903,258)" d="m0 0h5l2 3-2 4-2-2-6 1-2-5z" fill="#570D9A"/>
<path transform="translate(1438,264)" d="m0 0h7l7 3 6 6-1 2-8-6-11-4z" fill="#51138E"/>
<path transform="translate(1650,265)" d="m0 0 3 1-3 3-13 4-4 1 1-3z" fill="#462175"/>
<path transform="translate(1813,147)" d="m0 0 3 1-1 1h5l-4 2-10 4-2 1-1-4z" fill="#441D72"/>
<path transform="translate(1717,364)" d="m0 0h2l-1 9-2 8h-2v-8z" fill="#371556"/>
<path transform="translate(1893,202)" d="m0 0 6 2 10 7 2-1 1 6-8-5-11-8z" fill="#502678"/>
<path transform="translate(1595,227)" d="m0 0 2 3-1 8-3 4-3-1z" fill="#401B67"/>
<path transform="translate(1568,240)" d="m0 0v3l2 2-9 2h-6l-2-2 14-4z" fill="#421E6A"/>
<path transform="translate(1795,164)" d="m0 0 2 3-1 18h-1l-1-6h-1v-7z" fill="#39165A"/>
<path transform="translate(1536,388)" d="m0 0 9 1 6 1v2h-10l-9-2z" fill="#4A1C7F"/>
<path transform="translate(1607,329)" d="m0 0h1l3 11-1 4-3-3-2-10z" fill="#411B70"/>
<path transform="translate(1906,297)" d="m0 0 2 3-7 15-2-4z" fill="#442070"/>
<path transform="translate(1549,246)" d="m0 0h6v2l-12 4-5-1 3-2z" fill="#3C195F"/>
<path transform="translate(1551,235)" d="m0 0 13 1 4 2v2l-9-1-8-2z" fill="#2E104C"/>
<path transform="translate(1800,330)" d="m0 0h7l13 4 2 1v2l-16-4v-2h-6z" fill="#341456"/>
<path transform="translate(1672,268)" d="m0 0 6 1 10 6v2l-5-2-9-4-4-2z" fill="#4B2274"/>
<path transform="translate(1919,233)" d="m0 0h1v6h-2v2l-9 2-2-2 10-3 1-3z" fill="#351455"/>
<path transform="translate(1823,145)" d="m0 0h8l-2 2-6 2-10 1 4-4z" fill="#331351"/>
<path transform="translate(1965,365)" d="m0 0 1 2-5 6-4 2-3-1 5-5 3-2 1 1z" fill="#441E7B"/>
<path transform="translate(1781,332)" d="m0 0 3 1h-2v2l-16 8 2-4 11-6z" fill="#321250"/>
<path transform="translate(1680,160)" d="m0 0 5 2 10 6v3h-2v-2h-3v-2l-5-1v-2l-5-2z" fill="#623198"/>
<path transform="translate(1713,378)" d="m0 0 2 3v9l2 2h-6z" fill="#4D2373"/>
<path transform="translate(1721,187)" d="m0 0 4 2 9 7-1 3-11-9-2-2z" fill="#5A2990"/>
<path transform="translate(1642,372)" d="m0 0h14v2l-2 1h-10l-2-1z" fill="#1F0636"/>
<path transform="translate(1900,188)" d="m0 0h3l4 7v4h-3l-3-6z" fill="#3B185E"/>
<path transform="translate(1599,385)" d="m0 0 14 1-4 1v2l-13-1z" fill="#401B63"/>
<path transform="translate(1762,344)" d="m0 0 3 1-3 1-2 4-7 8-1-3 9-10z" fill="#30104B"/>
<path transform="translate(1622,309)" d="m0 0 2 4-1 9v4h-2l-1-4v-7z" fill="#570D99"/>
<path transform="translate(1773,242)" d="m0 0 1 3-3 11-3-1 2-10z" fill="#371556"/>
<path transform="translate(1713,248)" d="m0 0h6l1 2-1 2h-7l-5-1 4-2z" fill="#8D78DB"/>
<path transform="translate(1609,197)" d="m0 0 1 4-4 8-3 1 1-7 3-3h2z" fill="#38165C"/>
<path transform="translate(1746,329)" d="m0 0 4 1-7 6-4-1 5-5z" fill="#331250"/>
<path transform="translate(1012,277)" d="m0 0h1l1 5v7l-3 1-1-10h2z" fill="#60368E"/>
<path transform="translate(1818,258)" d="m0 0h6l2 3-11 1v-2l-3-1z" fill="#431C6D"/>
<path transform="translate(2e3 309)" d="m0 0 4 4 1 9-2-1-4-11z" fill="#1F0636"/>
<path transform="translate(1916,286)" d="m0 0 2 1-5 5-4 7h-2l1-4 7-8z" fill="#351456"/>
<path transform="translate(1825,257)" d="m0 0h10l-2 3h-11z" fill="#331255"/>
<path transform="translate(1889,169)" d="m0 0 3 1 4 7-1 3-6-7z" fill="#331354"/>
<path transform="translate(1621,173)" d="m0 0 1 4-1 3 3 2-3 1-3-2-1-1-1-2z" fill="#3A175B"/>
<path transform="translate(1834,118)" d="m0 0 12 2 5 1v1h-10l-7-2z" fill="#2B0E48"/>
<path transform="translate(1838,332)" d="m0 0 4 2 4 5v2l-4-1-4-5z" fill="#361659"/>
<path transform="translate(1811,267)" d="m0 0 4 2 4 5v2l-3 1-5-7z" fill="#3C1961"/>
<path transform="translate(1678,246)" d="m0 0 12 1-3 1v2l-11-1z" fill="#421B62"/>
<path transform="translate(1582,229)" d="m0 0h1v9l-1 4h8v1h-9l-1-5z" fill="#39175B"/>
<path transform="translate(1795,225)" d="m0 0h2l1 2v12l-3-6z" fill="#2D0F4A"/>
<path transform="translate(1634,152)" d="m0 0 2 1v3l-4 6-3-3 4-6z" fill="#421F6E"/>
<path transform="translate(1716,140)" d="m0 0h8l5 2v1h-13z" fill="#331256"/>
<path transform="translate(1500,365)" d="m0 0 7 1 4 2-1 1h-7l-3-1z" fill="#331351"/>
<path transform="translate(1441,322)" d="m0 0 6 1v2l7 2v1h-6l-6-3z" fill="#2F104F"/>
<path transform="translate(1487,310)" d="m0 0h2l-2 4-4 5-4 1 2-5 4-2z" fill="#482077"/>
<path transform="translate(1840,208)" d="m0 0 6 1 9 4-4 2-11-6z" fill="#5A2C94"/>
<path transform="translate(1538,375)" d="m0 0h7l5 1-2 2h-9z" fill="#2F104C"/>
<path transform="translate(1753,358)" d="m0 0 1 2-6 10-2-4 2-4 1 1z" fill="#432175"/>
<path transform="translate(1515,263)" d="m0 0 4 2-8 5h-3v-2z" fill="#411C66"/>
<path transform="translate(1845,254)" d="m0 0h9l-2 3h-10z" fill="#311150"/>
<path transform="translate(1962,245)" d="m0 0 4 2 7 9h-3l-8-9z" fill="#30114E"/>
<path transform="translate(1474,368)" d="m0 0 10 3 2 1v2l-5-1-7-2z" fill="#451F78"/>
<path transform="translate(1471,235)" d="m0 0h5l-1 2-7 2h-5v-2z" fill="#311251"/>
<path transform="translate(1777,217)" d="m0 0h2l-1 9h-3v-6z" fill="#361556"/>
<path transform="translate(1611,191)" d="m0 0 1 4-1 2h-2v3l-3 1 1-5 2-4z" fill="#30104C"/>
<path transform="translate(1757,149)" d="m0 0 6 2 2 2v3l-5-2-4-3z" fill="#431C70"/>
<path transform="translate(1728,345)" d="m0 0 2 1-5 10h-2l1-5z" fill="#341455"/>
<path transform="translate(1478,317)" d="m0 0 2 1-1 4-5 1-4-1z" fill="#560F96"/>
<path transform="translate(1629,300)" d="m0 0v3l-4 8h-2l1-5z" fill="#4D1A82"/>
<path transform="translate(1523,258)" d="m0 0h4v2l-7 4h-3v-2z" fill="#341352"/>
<path transform="translate(1710,179)" d="m0 0 7 4 4 3v2l-5-2-6-5z" fill="#552680"/>
</svg>
